<mxfile host="app.diagrams.net" agent="Mozilla/5.0 (Macintosh; Intel Mac OS X 10_15_7) AppleWebKit/605.1.15 (KHTML, like Gecko) Version/17.2 Safari/605.1.15" version="26.1.0" pages="2">
  <diagram id="CQhaN5EB3dNGqYCrP_yy" name="第 17 页">
    <mxGraphModel dx="2051" dy="816" grid="0" gridSize="10" guides="1" tooltips="1" connect="1" arrows="1" fold="1" page="1" pageScale="1" pageWidth="827" pageHeight="1169" math="0" shadow="0">
      <root>
        <mxCell id="0" />
        <mxCell id="1" parent="0" />
        <mxCell id="NRyeEst5oCWdzEZxvOJm-1" value="&lt;font style=&quot;font-size: 20px;&quot;&gt;消息源&lt;/font&gt;" style="rounded=0;whiteSpace=wrap;html=1;fontColor=#000000;fontFamily=Times New Roman;" parent="1" vertex="1">
          <mxGeometry x="-611" y="78" width="120" height="60" as="geometry" />
        </mxCell>
        <mxCell id="NRyeEst5oCWdzEZxvOJm-2" value="" style="edgeStyle=orthogonalEdgeStyle;rounded=0;orthogonalLoop=1;jettySize=auto;html=1;fontFamily=Times New Roman;" parent="1" source="NRyeEst5oCWdzEZxvOJm-3" target="NRyeEst5oCWdzEZxvOJm-11" edge="1">
          <mxGeometry relative="1" as="geometry" />
        </mxCell>
        <mxCell id="NRyeEst5oCWdzEZxvOJm-3" value="&lt;font style=&quot;font-size: 20px;&quot;&gt;目的地&lt;/font&gt;" style="rounded=0;whiteSpace=wrap;html=1;fontColor=#000000;fontFamily=Times New Roman;" parent="1" vertex="1">
          <mxGeometry x="-269" y="123" width="120" height="60" as="geometry" />
        </mxCell>
        <mxCell id="NRyeEst5oCWdzEZxvOJm-4" value="" style="edgeStyle=orthogonalEdgeStyle;rounded=0;orthogonalLoop=1;jettySize=auto;html=1;fontFamily=Times New Roman;" parent="1" source="NRyeEst5oCWdzEZxvOJm-5" target="NRyeEst5oCWdzEZxvOJm-7" edge="1">
          <mxGeometry relative="1" as="geometry" />
        </mxCell>
        <mxCell id="NRyeEst5oCWdzEZxvOJm-5" value="初始化" style="rounded=0;whiteSpace=wrap;html=1;hachureGap=4;fontFamily=Times New Roman;fontSize=20;fontColor=#000000;" parent="1" vertex="1">
          <mxGeometry x="-611" y="173" width="120" height="60" as="geometry" />
        </mxCell>
        <mxCell id="NRyeEst5oCWdzEZxvOJm-6" value="" style="edgeStyle=orthogonalEdgeStyle;rounded=0;orthogonalLoop=1;jettySize=auto;html=1;fontFamily=Times New Roman;" parent="1" source="NRyeEst5oCWdzEZxvOJm-7" target="NRyeEst5oCWdzEZxvOJm-9" edge="1">
          <mxGeometry relative="1" as="geometry" />
        </mxCell>
        <mxCell id="NRyeEst5oCWdzEZxvOJm-7" value="建立哈希链" style="rounded=0;whiteSpace=wrap;html=1;hachureGap=4;fontFamily=Times New Roman;fontSize=20;fontColor=#000000;" parent="1" vertex="1">
          <mxGeometry x="-611" y="278" width="120" height="60" as="geometry" />
        </mxCell>
        <mxCell id="NRyeEst5oCWdzEZxvOJm-8" value="" style="edgeStyle=orthogonalEdgeStyle;rounded=0;orthogonalLoop=1;jettySize=auto;html=1;fontFamily=Times New Roman;" parent="1" source="NRyeEst5oCWdzEZxvOJm-9" target="NRyeEst5oCWdzEZxvOJm-26" edge="1">
          <mxGeometry relative="1" as="geometry" />
        </mxCell>
        <mxCell id="NRyeEst5oCWdzEZxvOJm-9" value="多播认证码" style="rounded=0;whiteSpace=wrap;html=1;fontSize=20;fontFamily=Times New Roman;hachureGap=4;fontColor=#000000;" parent="1" vertex="1">
          <mxGeometry x="-611" y="387" width="120" height="60" as="geometry" />
        </mxCell>
        <mxCell id="NRyeEst5oCWdzEZxvOJm-10" value="" style="edgeStyle=orthogonalEdgeStyle;rounded=0;orthogonalLoop=1;jettySize=auto;html=1;fontFamily=Times New Roman;" parent="1" source="NRyeEst5oCWdzEZxvOJm-11" target="NRyeEst5oCWdzEZxvOJm-24" edge="1">
          <mxGeometry relative="1" as="geometry" />
        </mxCell>
        <mxCell id="NRyeEst5oCWdzEZxvOJm-11" value="初始化" style="rounded=0;whiteSpace=wrap;html=1;hachureGap=4;fontFamily=Times New Roman;fontSize=20;fontColor=#000000;" parent="1" vertex="1">
          <mxGeometry x="-269" y="233" width="120" height="60" as="geometry" />
        </mxCell>
        <mxCell id="NRyeEst5oCWdzEZxvOJm-12" value="双重验证" style="rounded=0;whiteSpace=wrap;html=1;hachureGap=4;fontFamily=Times New Roman;fontSize=20;fontColor=#000000;" parent="1" vertex="1">
          <mxGeometry x="-271" y="531" width="120" height="60" as="geometry" />
        </mxCell>
        <mxCell id="NRyeEst5oCWdzEZxvOJm-13" value="" style="edgeStyle=orthogonalEdgeStyle;rounded=0;hachureGap=4;orthogonalLoop=1;jettySize=auto;html=1;fontFamily=Times New Roman;fontSize=20;fontColor=#000000;" parent="1" source="NRyeEst5oCWdzEZxvOJm-14" target="NRyeEst5oCWdzEZxvOJm-16" edge="1">
          <mxGeometry relative="1" as="geometry" />
        </mxCell>
        <mxCell id="NRyeEst5oCWdzEZxvOJm-14" value="&lt;font style=&quot;&quot;&gt;&lt;span style=&quot;font-size: 20px;&quot;&gt;S&lt;/span&gt;&lt;font style=&quot;font-size: 11px;&quot;&gt;L&lt;/font&gt;&lt;/font&gt;" style="text;html=1;strokeColor=none;fillColor=none;align=center;verticalAlign=middle;whiteSpace=wrap;rounded=0;fontSize=20;fontFamily=Times New Roman;fontColor=#000000;direction=east;flipV=0;flipH=1;fontStyle=2" parent="1" vertex="1">
          <mxGeometry x="-651" y="188" width="40" height="30" as="geometry" />
        </mxCell>
        <mxCell id="NRyeEst5oCWdzEZxvOJm-15" value="" style="edgeStyle=orthogonalEdgeStyle;rounded=0;hachureGap=4;orthogonalLoop=1;jettySize=auto;html=1;fontFamily=Times New Roman;fontSize=16;fontColor=#000000;" parent="1" source="NRyeEst5oCWdzEZxvOJm-16" target="NRyeEst5oCWdzEZxvOJm-18" edge="1">
          <mxGeometry relative="1" as="geometry">
            <mxPoint x="-787" y="203" as="targetPoint" />
          </mxGeometry>
        </mxCell>
        <mxCell id="NRyeEst5oCWdzEZxvOJm-16" value="&lt;font&gt;&lt;span style=&quot;font-size: 38px;&quot;&gt;…&lt;/span&gt;&lt;/font&gt;" style="text;html=1;strokeColor=none;fillColor=none;align=center;verticalAlign=middle;whiteSpace=wrap;rounded=0;fontSize=20;fontFamily=Times New Roman;fontColor=#000000;direction=east;flipV=0;flipH=1;" parent="1" vertex="1">
          <mxGeometry x="-705" y="188" width="32" height="30" as="geometry" />
        </mxCell>
        <mxCell id="NRyeEst5oCWdzEZxvOJm-17" value="" style="edgeStyle=orthogonalEdgeStyle;rounded=0;hachureGap=4;orthogonalLoop=1;jettySize=auto;html=1;fontFamily=Times New Roman;fontSize=20;fontColor=#000000;" parent="1" source="NRyeEst5oCWdzEZxvOJm-18" edge="1">
          <mxGeometry relative="1" as="geometry">
            <mxPoint x="-786" y="203" as="targetPoint" />
          </mxGeometry>
        </mxCell>
        <mxCell id="NRyeEst5oCWdzEZxvOJm-18" value="&lt;font&gt;&lt;font style=&quot;font-size: 20px;&quot;&gt;S&lt;/font&gt;&lt;font style=&quot;font-size: 12px;&quot;&gt;1&lt;/font&gt;&lt;/font&gt;" style="text;html=1;strokeColor=none;fillColor=none;align=center;verticalAlign=middle;whiteSpace=wrap;rounded=0;fontSize=20;fontFamily=Times New Roman;fontColor=#000000;direction=east;flipV=0;flipH=1;fontStyle=2" parent="1" vertex="1">
          <mxGeometry x="-765" y="188.5" width="40" height="30" as="geometry" />
        </mxCell>
        <mxCell id="NRyeEst5oCWdzEZxvOJm-19" value="" style="endArrow=classic;html=1;rounded=0;hachureGap=4;fontFamily=Times New Roman;fontSize=16;exitX=1;exitY=0.5;exitDx=0;exitDy=0;entryX=-0.017;entryY=0.394;entryDx=0;entryDy=0;entryPerimeter=0;fontColor=#000000;" parent="1" source="NRyeEst5oCWdzEZxvOJm-5" target="NRyeEst5oCWdzEZxvOJm-11" edge="1">
          <mxGeometry width="50" height="50" relative="1" as="geometry">
            <mxPoint x="-405" y="164" as="sourcePoint" />
            <mxPoint x="-260" y="264" as="targetPoint" />
            <Array as="points" />
          </mxGeometry>
        </mxCell>
        <mxCell id="NRyeEst5oCWdzEZxvOJm-20" value="&lt;font style=&quot;&quot;&gt;&lt;i&gt;S&lt;sub style=&quot;&quot;&gt;&lt;font style=&quot;font-size: 12px;&quot;&gt;0&lt;/font&gt;&lt;/sub&gt;&lt;/i&gt;&lt;/font&gt;&lt;i&gt;，T&lt;/i&gt;" style="text;html=1;strokeColor=none;fillColor=none;align=center;verticalAlign=middle;whiteSpace=wrap;rounded=0;fontSize=20;fontFamily=Times New Roman;fontColor=#000000;direction=east;flipV=0;flipH=1;rotation=15;" parent="1" vertex="1">
          <mxGeometry x="-425" y="203" width="91" height="30" as="geometry" />
        </mxCell>
        <mxCell id="NRyeEst5oCWdzEZxvOJm-21" value="&lt;font style=&quot;font-size: 19px;&quot;&gt;&lt;i style=&quot;font-size: 19px;&quot;&gt;&lt;span style=&quot;font-variant-ligatures: normal; font-variant-caps: normal; font-weight: 400; letter-spacing: normal; orphans: 2; text-align: center; text-indent: 0px; text-transform: none; widows: 2; word-spacing: 0px; -webkit-text-stroke-width: 0px; background-color: rgb(255, 255, 255); text-decoration-thickness: initial; text-decoration-style: initial; text-decoration-color: initial; float: none; display: inline !important; font-size: 19px;&quot;&gt;&lt;span style=&quot;font-size: 19px;&quot;&gt;M&lt;/span&gt;&lt;sub style=&quot;border-color: var(--border-color); font-size: 19px;&quot;&gt;&lt;span style=&quot;border-color: var(--border-color); font-size: 19px;&quot;&gt;&lt;font style=&quot;font-size: 19px;&quot;&gt;d&lt;/font&gt;&lt;/span&gt;&lt;/sub&gt;&lt;br style=&quot;font-size: 19px;&quot;&gt;&lt;span style=&quot;font-size: 19px;&quot;&gt;....&lt;/span&gt;&lt;br style=&quot;font-size: 19px;&quot;&gt;&lt;span style=&quot;font-size: 19px;&quot;&gt;M&lt;/span&gt;&lt;sub style=&quot;border-color: var(--border-color); font-size: 19px;&quot;&gt;&lt;span style=&quot;border-color: var(--border-color); font-size: 19px;&quot;&gt;&lt;font style=&quot;font-size: 19px;&quot;&gt;2&lt;/font&gt;&lt;/span&gt;&lt;/sub&gt;&lt;br style=&quot;font-size: 19px;&quot;&gt;&lt;span style=&quot;font-size: 19px;&quot;&gt;M&lt;/span&gt;&lt;/span&gt;&lt;/i&gt;&lt;/font&gt;&lt;sub style=&quot;border-color: var(--border-color); font-variant-ligatures: normal; font-variant-caps: normal; font-weight: 400; letter-spacing: normal; orphans: 2; text-align: center; text-indent: 0px; text-transform: none; widows: 2; word-spacing: 0px; -webkit-text-stroke-width: 0px; background-color: rgb(255, 255, 255); text-decoration-thickness: initial; text-decoration-style: initial; text-decoration-color: initial; font-size: 19px;&quot;&gt;&lt;font style=&quot;font-size: 19px;&quot;&gt;&lt;i style=&quot;font-size: 19px;&quot;&gt;&lt;font style=&quot;font-size: 19px;&quot;&gt;1&lt;/font&gt;&lt;br style=&quot;font-size: 19px;&quot;&gt;&lt;font style=&quot;font-size: 19px;&quot;&gt;M&lt;/font&gt;&lt;sub style=&quot;border-color: var(--border-color); font-size: 19px;&quot;&gt;&lt;font style=&quot;font-size: 19px;&quot;&gt;0&lt;/font&gt;&lt;/sub&gt;&lt;/i&gt;&lt;/font&gt;&lt;br style=&quot;font-size: 19px;&quot;&gt;&lt;/sub&gt;" style="whiteSpace=wrap;html=1;rounded=0;hachureGap=4;strokeColor=default;fontFamily=Times New Roman;fontSize=19;fontColor=#000000;fillColor=default;dashed=1;" parent="1" vertex="1">
          <mxGeometry x="-686" y="250" width="68" height="146" as="geometry" />
        </mxCell>
        <mxCell id="NRyeEst5oCWdzEZxvOJm-22" value="" style="endArrow=classic;html=1;rounded=0;hachureGap=4;fontFamily=Times New Roman;fontSize=16;exitX=1;exitY=0.5;exitDx=0;exitDy=0;fontColor=#000000;" parent="1" source="NRyeEst5oCWdzEZxvOJm-9" edge="1">
          <mxGeometry width="50" height="50" relative="1" as="geometry">
            <mxPoint x="-491" y="436.5" as="sourcePoint" />
            <mxPoint x="-213" y="474" as="targetPoint" />
          </mxGeometry>
        </mxCell>
        <mxCell id="NRyeEst5oCWdzEZxvOJm-23" value="&lt;font&gt;HMAC(M，&lt;i&gt;M&lt;sub&gt;d&lt;/sub&gt;，C&lt;/i&gt;)&lt;/font&gt;" style="text;html=1;strokeColor=none;fillColor=none;align=center;verticalAlign=middle;whiteSpace=wrap;rounded=0;fontSize=20;fontFamily=Times New Roman;fontColor=#000000;direction=east;flipV=0;flipH=1;rotation=12;" parent="1" vertex="1">
          <mxGeometry x="-462.61" y="409" width="191.61" height="31" as="geometry" />
        </mxCell>
        <mxCell id="NRyeEst5oCWdzEZxvOJm-24" value="重构哈希链" style="rounded=0;whiteSpace=wrap;html=1;hachureGap=4;fontFamily=Times New Roman;fontSize=20;fontColor=#000000;" parent="1" vertex="1">
          <mxGeometry x="-269" y="338" width="120" height="60" as="geometry" />
        </mxCell>
        <mxCell id="NRyeEst5oCWdzEZxvOJm-25" value="" style="endArrow=classic;html=1;rounded=0;hachureGap=4;fontFamily=Times New Roman;fontSize=16;exitX=1;exitY=0.5;exitDx=0;exitDy=0;entryX=0;entryY=0.5;entryDx=0;entryDy=0;fontColor=#000000;" parent="1" source="NRyeEst5oCWdzEZxvOJm-7" target="NRyeEst5oCWdzEZxvOJm-24" edge="1">
          <mxGeometry width="50" height="50" relative="1" as="geometry">
            <mxPoint x="-491" y="334" as="sourcePoint" />
            <mxPoint x="-271" y="376" as="targetPoint" />
            <Array as="points" />
          </mxGeometry>
        </mxCell>
        <mxCell id="NRyeEst5oCWdzEZxvOJm-26" value="纰漏密钥" style="rounded=0;whiteSpace=wrap;html=1;fontSize=20;fontFamily=Times New Roman;hachureGap=4;fontColor=#000000;" parent="1" vertex="1">
          <mxGeometry x="-611" y="496" width="120" height="60" as="geometry" />
        </mxCell>
        <mxCell id="NRyeEst5oCWdzEZxvOJm-27" value="" style="endArrow=classic;html=1;rounded=0;hachureGap=4;fontFamily=Times New Roman;fontSize=16;exitX=1;exitY=0.5;exitDx=0;exitDy=0;entryX=0;entryY=0.5;entryDx=0;entryDy=0;fontColor=#000000;" parent="1" source="NRyeEst5oCWdzEZxvOJm-26" target="NRyeEst5oCWdzEZxvOJm-12" edge="1">
          <mxGeometry width="50" height="50" relative="1" as="geometry">
            <mxPoint x="-491" y="511" as="sourcePoint" />
            <mxPoint x="-272" y="578" as="targetPoint" />
            <Array as="points" />
          </mxGeometry>
        </mxCell>
        <mxCell id="NRyeEst5oCWdzEZxvOJm-28" value="&lt;font style=&quot;&quot;&gt;&lt;i&gt;S&lt;span style=&quot;font-size: 12px;&quot;&gt;x&lt;/span&gt;&lt;/i&gt;&lt;/font&gt;" style="text;html=1;strokeColor=none;fillColor=none;align=center;verticalAlign=middle;whiteSpace=wrap;rounded=0;fontSize=20;fontFamily=Times New Roman;fontColor=#000000;direction=east;flipV=0;flipH=1;rotation=10;" parent="1" vertex="1">
          <mxGeometry x="-431" y="516" width="91" height="30" as="geometry" />
        </mxCell>
        <mxCell id="NRyeEst5oCWdzEZxvOJm-29" value="" style="shape=curlyBracket;whiteSpace=wrap;html=1;rounded=1;flipH=1;labelPosition=right;verticalLabelPosition=middle;align=left;verticalAlign=middle;fontColor=#000000;fontFamily=Times New Roman;" parent="1" vertex="1">
          <mxGeometry x="-111" y="92" width="20" height="214" as="geometry" />
        </mxCell>
        <mxCell id="NRyeEst5oCWdzEZxvOJm-30" value="每经过L轮密钥纰漏重复一次" style="text;html=1;strokeColor=none;fillColor=none;align=center;verticalAlign=middle;whiteSpace=wrap;rounded=0;fontColor=#000000;fontFamily=Times New Roman;" parent="1" vertex="1">
          <mxGeometry x="-78" y="170" width="61" height="67" as="geometry" />
        </mxCell>
        <mxCell id="NRyeEst5oCWdzEZxvOJm-31" value="" style="shape=curlyBracket;whiteSpace=wrap;html=1;rounded=1;flipH=1;labelPosition=right;verticalLabelPosition=middle;align=left;verticalAlign=middle;fontColor=#000000;fontFamily=Times New Roman;" parent="1" vertex="1">
          <mxGeometry x="-111" y="336" width="20" height="249" as="geometry" />
        </mxCell>
        <mxCell id="NRyeEst5oCWdzEZxvOJm-32" value="每轮d条消息生成哈希链并签名重复一次" style="text;html=1;strokeColor=none;fillColor=none;align=center;verticalAlign=middle;whiteSpace=wrap;rounded=0;fontColor=#000000;fontFamily=Times New Roman;" parent="1" vertex="1">
          <mxGeometry x="-78" y="427" width="64" height="67" as="geometry" />
        </mxCell>
        <mxCell id="NRyeEst5oCWdzEZxvOJm-33" value="" style="endArrow=classic;html=1;rounded=0;hachureGap=4;fontFamily=Times New Roman;fontSize=16;exitX=0.5;exitY=1;exitDx=0;exitDy=0;entryX=0.5;entryY=0;entryDx=0;entryDy=0;fontColor=#000000;" parent="1" source="NRyeEst5oCWdzEZxvOJm-1" target="NRyeEst5oCWdzEZxvOJm-5" edge="1">
          <mxGeometry width="50" height="50" relative="1" as="geometry">
            <mxPoint x="-481" y="213" as="sourcePoint" />
            <mxPoint x="-261" y="267" as="targetPoint" />
            <Array as="points" />
          </mxGeometry>
        </mxCell>
        <mxCell id="NRyeEst5oCWdzEZxvOJm-34" value="" style="endArrow=classic;html=1;rounded=0;hachureGap=4;fontFamily=Times New Roman;fontSize=16;exitX=0.5;exitY=1;exitDx=0;exitDy=0;fontColor=#000000;" parent="1" source="NRyeEst5oCWdzEZxvOJm-24" target="NRyeEst5oCWdzEZxvOJm-12" edge="1">
          <mxGeometry width="50" height="50" relative="1" as="geometry">
            <mxPoint x="-541" y="148" as="sourcePoint" />
            <mxPoint x="-541" y="183" as="targetPoint" />
            <Array as="points" />
          </mxGeometry>
        </mxCell>
        <mxCell id="J_ahgQnwuk6D2J3aFWaC-1" value="" style="endArrow=none;dashed=1;html=1;rounded=0;fontFamily=Times New Roman;" parent="1" edge="1">
          <mxGeometry width="50" height="50" relative="1" as="geometry">
            <mxPoint x="-549" y="494" as="sourcePoint" />
            <mxPoint x="-210" y="500" as="targetPoint" />
          </mxGeometry>
        </mxCell>
        <mxCell id="J_ahgQnwuk6D2J3aFWaC-2" value="&lt;span style=&quot;color: rgb(0, 0, 0); font-size: 11px; font-style: normal; font-variant-ligatures: normal; font-variant-caps: normal; font-weight: 400; letter-spacing: normal; orphans: 2; text-align: center; text-indent: 0px; text-transform: none; widows: 2; word-spacing: 0px; -webkit-text-stroke-width: 0px; background-color: rgb(251, 251, 251); text-decoration-thickness: initial; text-decoration-style: initial; text-decoration-color: initial; float: none; display: inline !important;&quot;&gt;安全时延上限T&lt;/span&gt;" style="text;whiteSpace=wrap;html=1;fontFamily=Times New Roman;rounded=1;" parent="1" vertex="1">
          <mxGeometry x="-421" y="473" width="94" height="36" as="geometry" />
        </mxCell>
        <mxCell id="J_ahgQnwuk6D2J3aFWaC-4" value="&lt;font style=&quot;&quot;&gt;&lt;i&gt;（M&lt;sub&gt;x&lt;/sub&gt;，H（M，&lt;/i&gt;&lt;i&gt;M&lt;sub&gt;&lt;font style=&quot;font-size: 12px;&quot;&gt;x-1&lt;/font&gt;&lt;/sub&gt;&lt;/i&gt;&lt;i&gt;））&lt;/i&gt;&lt;/font&gt;" style="text;html=1;strokeColor=none;fillColor=none;align=center;verticalAlign=middle;whiteSpace=wrap;rounded=0;fontSize=20;fontFamily=Times New Roman;fontColor=#000000;direction=east;flipV=0;flipH=1;rotation=15;" parent="1" vertex="1">
          <mxGeometry x="-490.99999999999994" y="308" width="226.23" height="30" as="geometry" />
        </mxCell>
        <mxCell id="J_ahgQnwuk6D2J3aFWaC-5" value="&lt;font style=&quot;&quot;&gt;&lt;span style=&quot;font-size: 20px;&quot;&gt;S&lt;/span&gt;&lt;font style=&quot;font-size: 11px;&quot;&gt;0&lt;/font&gt;&lt;/font&gt;" style="text;html=1;strokeColor=none;fillColor=none;align=center;verticalAlign=middle;whiteSpace=wrap;rounded=0;fontSize=20;fontFamily=Times New Roman;fontColor=#000000;direction=east;flipV=0;flipH=1;fontStyle=2" parent="1" vertex="1">
          <mxGeometry x="-817" y="188" width="40" height="30" as="geometry" />
        </mxCell>
      </root>
    </mxGraphModel>
  </diagram>
  <diagram id="TjRgmDrjOx5BY7FQoETr" name="第 2 页">
    <mxGraphModel dx="2051" dy="816" grid="1" gridSize="10" guides="1" tooltips="1" connect="1" arrows="1" fold="1" page="1" pageScale="1" pageWidth="827" pageHeight="1169" math="0" shadow="0">
      <root>
        <mxCell id="0" />
        <mxCell id="1" parent="0" />
        <mxCell id="b48JXR69DHQrIMgQN_rI-2" value="基于哈希链的多播认证流程" style="text;html=1;strokeColor=none;fillColor=none;align=center;verticalAlign=middle;whiteSpace=wrap;rounded=0;fontSize=24;fontStyle=1;fontFamily=Times New Roman;" parent="1" vertex="1">
          <mxGeometry x="-611" y="20" width="500" height="40" as="geometry" />
        </mxCell>
        <mxCell id="b48JXR69DHQrIMgQN_rI-3" value="消息源" style="rounded=0;whiteSpace=wrap;html=1;fontColor=#000000;fontFamily=Times New Roman;fontSize=20;fillColor=#dae8fc;strokeColor=#6c8ebf;fontStyle=1" parent="1" vertex="1">
          <mxGeometry x="-611" y="78" width="120" height="60" as="geometry" />
        </mxCell>
        <mxCell id="b48JXR69DHQrIMgQN_rI-4" value="目的地" style="rounded=0;whiteSpace=wrap;html=1;fontColor=#000000;fontFamily=Times New Roman;fontSize=20;fillColor=#d5e8d4;strokeColor=#82b366;fontStyle=1" parent="1" vertex="1">
          <mxGeometry x="-269" y="123" width="120" height="60" as="geometry" />
        </mxCell>
        <mxCell id="b48JXR69DHQrIMgQN_rI-5" value="初始化" style="rounded=1;whiteSpace=wrap;html=1;fontFamily=Times New Roman;fontSize=20;fontColor=#000000;fillColor=#f5f5f5;strokeColor=#666666;" parent="1" vertex="1">
          <mxGeometry x="-611" y="173" width="120" height="60" as="geometry" />
        </mxCell>
        <mxCell id="b48JXR69DHQrIMgQN_rI-6" value="建立哈希链" style="rounded=1;whiteSpace=wrap;html=1;fontFamily=Times New Roman;fontSize=20;fontColor=#000000;fillColor=#f5f5f5;strokeColor=#666666;" parent="1" vertex="1">
          <mxGeometry x="-611" y="278" width="120" height="60" as="geometry" />
        </mxCell>
        <mxCell id="b48JXR69DHQrIMgQN_rI-7" value="多播认证码" style="rounded=1;whiteSpace=wrap;html=1;fontSize=20;fontFamily=Times New Roman;fontColor=#000000;fillColor=#f5f5f5;strokeColor=#666666;" parent="1" vertex="1">
          <mxGeometry x="-611" y="387" width="120" height="60" as="geometry" />
        </mxCell>
        <mxCell id="b48JXR69DHQrIMgQN_rI-8" value="纰漏密钥" style="rounded=1;whiteSpace=wrap;html=1;fontSize=20;fontFamily=Times New Roman;fontColor=#000000;fillColor=#f5f5f5;strokeColor=#666666;" parent="1" vertex="1">
          <mxGeometry x="-611" y="496" width="120" height="60" as="geometry" />
        </mxCell>
        <mxCell id="b48JXR69DHQrIMgQN_rI-9" value="初始化" style="rounded=1;whiteSpace=wrap;html=1;fontFamily=Times New Roman;fontSize=20;fontColor=#000000;fillColor=#f5f5f5;strokeColor=#666666;" parent="1" vertex="1">
          <mxGeometry x="-269" y="233" width="120" height="60" as="geometry" />
        </mxCell>
        <mxCell id="b48JXR69DHQrIMgQN_rI-10" value="重构哈希链" style="rounded=1;whiteSpace=wrap;html=1;fontFamily=Times New Roman;fontSize=20;fontColor=#000000;fillColor=#f5f5f5;strokeColor=#666666;" parent="1" vertex="1">
          <mxGeometry x="-269" y="338" width="120" height="60" as="geometry" />
        </mxCell>
        <mxCell id="b48JXR69DHQrIMgQN_rI-11" value="双重验证" style="rounded=1;whiteSpace=wrap;html=1;fontFamily=Times New Roman;fontSize=20;fontColor=#000000;fillColor=#f5f5f5;strokeColor=#666666;" parent="1" vertex="1">
          <mxGeometry x="-271" y="531" width="120" height="60" as="geometry" />
        </mxCell>
        <mxCell id="b48JXR69DHQrIMgQN_rI-12" value="SL" style="text;html=1;strokeColor=none;fillColor=none;align=center;verticalAlign=middle;whiteSpace=wrap;rounded=0;fontSize=20;fontFamily=Times New Roman;fontColor=#000000;fontStyle=2" parent="1" vertex="1">
          <mxGeometry x="-651" y="188" width="40" height="30" as="geometry" />
        </mxCell>
        <mxCell id="b48JXR69DHQrIMgQN_rI-13" value="…" style="text;html=1;strokeColor=none;fillColor=none;align=center;verticalAlign=middle;whiteSpace=wrap;rounded=0;fontSize=38;fontFamily=Times New Roman;fontColor=#000000;" parent="1" vertex="1">
          <mxGeometry x="-705" y="188" width="32" height="30" as="geometry" />
        </mxCell>
        <mxCell id="b48JXR69DHQrIMgQN_rI-14" value="S1" style="text;html=1;strokeColor=none;fillColor=none;align=center;verticalAlign=middle;whiteSpace=wrap;rounded=0;fontSize=20;fontFamily=Times New Roman;fontColor=#000000;fontStyle=2" parent="1" vertex="1">
          <mxGeometry x="-765" y="188.5" width="40" height="30" as="geometry" />
        </mxCell>
        <mxCell id="b48JXR69DHQrIMgQN_rI-15" value="S0" style="text;html=1;strokeColor=none;fillColor=none;align=center;verticalAlign=middle;whiteSpace=wrap;rounded=0;fontSize=20;fontFamily=Times New Roman;fontColor=#000000;fontStyle=2" parent="1" vertex="1">
          <mxGeometry x="-817" y="188" width="40" height="30" as="geometry" />
        </mxCell>
        <mxCell id="b48JXR69DHQrIMgQN_rI-16" value="Md&#xa;....&#xa;M2&#xa;M1&#xa;M0" style="whiteSpace=wrap;html=1;rounded=0;strokeColor=#9673a6;fontFamily=Times New Roman;fontSize=19;fontColor=#000000;fillColor=#e1d5e7;dashed=1;fontStyle=2" parent="1" vertex="1">
          <mxGeometry x="-686" y="250" width="68" height="146" as="geometry" />
        </mxCell>
        <mxCell id="b48JXR69DHQrIMgQN_rI-17" value="" style="edgeStyle=orthogonalEdgeStyle;rounded=0;orthogonalLoop=1;jettySize=auto;html=1;fontFamily=Times New Roman;strokeWidth=1.5;strokeColor=#000000;" parent="1" source="b48JXR69DHQrIMgQN_rI-3" target="b48JXR69DHQrIMgQN_rI-5" edge="1">
          <mxGeometry relative="1" as="geometry" />
        </mxCell>
        <mxCell id="b48JXR69DHQrIMgQN_rI-18" value="" style="edgeStyle=orthogonalEdgeStyle;rounded=0;orthogonalLoop=1;jettySize=auto;html=1;fontFamily=Times New Roman;strokeWidth=1.5;strokeColor=#000000;" parent="1" source="b48JXR69DHQrIMgQN_rI-5" target="b48JXR69DHQrIMgQN_rI-6" edge="1">
          <mxGeometry relative="1" as="geometry" />
        </mxCell>
        <mxCell id="b48JXR69DHQrIMgQN_rI-19" value="" style="edgeStyle=orthogonalEdgeStyle;rounded=0;orthogonalLoop=1;jettySize=auto;html=1;fontFamily=Times New Roman;strokeWidth=1.5;strokeColor=#000000;" parent="1" source="b48JXR69DHQrIMgQN_rI-6" target="b48JXR69DHQrIMgQN_rI-7" edge="1">
          <mxGeometry relative="1" as="geometry" />
        </mxCell>
        <mxCell id="b48JXR69DHQrIMgQN_rI-20" value="" style="edgeStyle=orthogonalEdgeStyle;rounded=0;orthogonalLoop=1;jettySize=auto;html=1;fontFamily=Times New Roman;strokeWidth=1.5;strokeColor=#000000;" parent="1" source="b48JXR69DHQrIMgQN_rI-7" target="b48JXR69DHQrIMgQN_rI-8" edge="1">
          <mxGeometry relative="1" as="geometry" />
        </mxCell>
        <mxCell id="b48JXR69DHQrIMgQN_rI-21" value="" style="edgeStyle=orthogonalEdgeStyle;rounded=0;orthogonalLoop=1;jettySize=auto;html=1;fontFamily=Times New Roman;strokeWidth=1.5;strokeColor=#000000;" parent="1" source="b48JXR69DHQrIMgQN_rI-4" target="b48JXR69DHQrIMgQN_rI-9" edge="1">
          <mxGeometry relative="1" as="geometry" />
        </mxCell>
        <mxCell id="b48JXR69DHQrIMgQN_rI-22" value="" style="edgeStyle=orthogonalEdgeStyle;rounded=0;orthogonalLoop=1;jettySize=auto;html=1;fontFamily=Times New Roman;strokeWidth=1.5;strokeColor=#000000;" parent="1" source="b48JXR69DHQrIMgQN_rI-9" target="b48JXR69DHQrIMgQN_rI-10" edge="1">
          <mxGeometry relative="1" as="geometry" />
        </mxCell>
        <mxCell id="b48JXR69DHQrIMgQN_rI-23" value="" style="edgeStyle=orthogonalEdgeStyle;rounded=0;orthogonalLoop=1;jettySize=auto;html=1;fontFamily=Times New Roman;strokeWidth=1.5;strokeColor=#000000;" parent="1" source="b48JXR69DHQrIMgQN_rI-10" target="b48JXR69DHQrIMgQN_rI-11" edge="1">
          <mxGeometry relative="1" as="geometry">
            <Array as="points">
              <mxPoint x="-209" y="510" />
              <mxPoint x="-209" y="510" />
            </Array>
          </mxGeometry>
        </mxCell>
        <mxCell id="b48JXR69DHQrIMgQN_rI-24" value="" style="endArrow=classic;html=1;rounded=0;fontFamily=Times New Roman;exitX=1;exitY=0.5;exitDx=0;exitDy=0;entryX=0;entryY=0.5;entryDx=0;entryDy=0;fontColor=#000000;strokeWidth=1.5;strokeColor=#0066CC;" parent="1" source="b48JXR69DHQrIMgQN_rI-5" target="b48JXR69DHQrIMgQN_rI-9" edge="1">
          <mxGeometry width="50" height="50" relative="1" as="geometry">
            <mxPoint x="-405" y="164" as="sourcePoint" />
            <mxPoint x="-260" y="264" as="targetPoint" />
          </mxGeometry>
        </mxCell>
        <mxCell id="b48JXR69DHQrIMgQN_rI-25" value="" style="endArrow=classic;html=1;rounded=0;fontFamily=Times New Roman;exitX=1;exitY=0.5;exitDx=0;exitDy=0;entryX=0;entryY=0.5;entryDx=0;entryDy=0;fontColor=#000000;strokeWidth=1.5;strokeColor=#0066CC;" parent="1" source="b48JXR69DHQrIMgQN_rI-6" target="b48JXR69DHQrIMgQN_rI-10" edge="1">
          <mxGeometry width="50" height="50" relative="1" as="geometry">
            <mxPoint x="-491" y="334" as="sourcePoint" />
            <mxPoint x="-271" y="376" as="targetPoint" />
          </mxGeometry>
        </mxCell>
        <mxCell id="b48JXR69DHQrIMgQN_rI-26" value="" style="endArrow=classic;html=1;rounded=0;fontFamily=Times New Roman;exitX=1;exitY=0.5;exitDx=0;exitDy=0;fontColor=#000000;strokeWidth=1.5;strokeColor=#0066CC;" parent="1" source="b48JXR69DHQrIMgQN_rI-7" edge="1">
          <mxGeometry width="50" height="50" relative="1" as="geometry">
            <mxPoint x="-491" y="436.5" as="sourcePoint" />
            <mxPoint x="-213" y="474" as="targetPoint" />
          </mxGeometry>
        </mxCell>
        <mxCell id="b48JXR69DHQrIMgQN_rI-27" value="" style="endArrow=classic;html=1;rounded=0;fontFamily=Times New Roman;exitX=1;exitY=0.5;exitDx=0;exitDy=0;entryX=0;entryY=0.5;entryDx=0;entryDy=0;fontColor=#000000;strokeWidth=1.5;strokeColor=#0066CC;" parent="1" source="b48JXR69DHQrIMgQN_rI-8" target="b48JXR69DHQrIMgQN_rI-11" edge="1">
          <mxGeometry width="50" height="50" relative="1" as="geometry">
            <mxPoint x="-491" y="511" as="sourcePoint" />
            <mxPoint x="-272" y="578" as="targetPoint" />
          </mxGeometry>
        </mxCell>
        <mxCell id="b48JXR69DHQrIMgQN_rI-28" value="S0，T" style="text;html=1;strokeColor=none;fillColor=none;align=center;verticalAlign=middle;whiteSpace=wrap;rounded=0;fontSize=20;fontFamily=Times New Roman;fontColor=#000000;rotation=15;fontStyle=2" parent="1" vertex="1">
          <mxGeometry x="-425" y="203" width="91" height="30" as="geometry" />
        </mxCell>
        <mxCell id="b48JXR69DHQrIMgQN_rI-29" value="（Mx，H（M，Mx-1））" style="text;html=1;strokeColor=none;fillColor=none;align=center;verticalAlign=middle;whiteSpace=wrap;rounded=0;fontSize=20;fontFamily=Times New Roman;fontColor=#000000;rotation=15;fontStyle=2" parent="1" vertex="1">
          <mxGeometry x="-491" y="308" width="226" height="30" as="geometry" />
        </mxCell>
        <mxCell id="b48JXR69DHQrIMgQN_rI-30" value="HMAC(M，Md，C)" style="text;html=1;strokeColor=none;fillColor=none;align=center;verticalAlign=middle;whiteSpace=wrap;rounded=0;fontSize=20;fontFamily=Times New Roman;fontColor=#000000;rotation=12;fontStyle=2" parent="1" vertex="1">
          <mxGeometry x="-463" y="409" width="192" height="31" as="geometry" />
        </mxCell>
        <mxCell id="b48JXR69DHQrIMgQN_rI-31" value="Sx" style="text;html=1;strokeColor=none;fillColor=none;align=center;verticalAlign=middle;whiteSpace=wrap;rounded=0;fontSize=20;fontFamily=Times New Roman;fontColor=#000000;rotation=10;fontStyle=2" parent="1" vertex="1">
          <mxGeometry x="-431" y="516" width="91" height="30" as="geometry" />
        </mxCell>
        <mxCell id="b48JXR69DHQrIMgQN_rI-32" value="" style="endArrow=classic;html=1;rounded=0;fontFamily=Times New Roman;exitX=0;exitY=0.5;exitDx=0;exitDy=0;entryX=1;entryY=0.5;entryDx=0;entryDy=0;fontColor=#000000;strokeWidth=1.5;strokeColor=#FF0000;" parent="1" source="b48JXR69DHQrIMgQN_rI-12" target="b48JXR69DHQrIMgQN_rI-13" edge="1">
          <mxGeometry width="50" height="50" relative="1" as="geometry" />
        </mxCell>
        <mxCell id="b48JXR69DHQrIMgQN_rI-33" value="" style="endArrow=classic;html=1;rounded=0;fontFamily=Times New Roman;exitX=0;exitY=0.5;exitDx=0;exitDy=0;entryX=1;entryY=0.5;entryDx=0;entryDy=0;fontColor=#000000;strokeWidth=1.5;strokeColor=#FF0000;" parent="1" source="b48JXR69DHQrIMgQN_rI-13" target="b48JXR69DHQrIMgQN_rI-14" edge="1">
          <mxGeometry width="50" height="50" relative="1" as="geometry" />
        </mxCell>
        <mxCell id="b48JXR69DHQrIMgQN_rI-34" value="" style="endArrow=classic;html=1;rounded=0;fontFamily=Times New Roman;exitX=0;exitY=0.5;exitDx=0;exitDy=0;entryX=1;entryY=0.5;entryDx=0;entryDy=0;fontColor=#000000;strokeWidth=1.5;strokeColor=#FF0000;" parent="1" source="b48JXR69DHQrIMgQN_rI-14" target="b48JXR69DHQrIMgQN_rI-15" edge="1">
          <mxGeometry width="50" height="50" relative="1" as="geometry" />
        </mxCell>
        <mxCell id="b48JXR69DHQrIMgQN_rI-35" value="" style="endArrow=none;dashed=1;html=1;rounded=0;fontFamily=Times New Roman;strokeWidth=1.5;strokeColor=#FF0000;" parent="1" edge="1">
          <mxGeometry width="50" height="50" relative="1" as="geometry">
            <mxPoint x="-549" y="494" as="sourcePoint" />
            <mxPoint x="-210" y="500" as="targetPoint" />
          </mxGeometry>
        </mxCell>
        <mxCell id="b48JXR69DHQrIMgQN_rI-36" value="安全时延上限T" style="text;whiteSpace=wrap;html=1;fontFamily=Times New Roman;rounded=1;fontSize=14;fontStyle=1;fillColor=#fff2cc;strokeColor=#d6b656;" parent="1" vertex="1">
          <mxGeometry x="-421" y="473" width="101" height="36" as="geometry" />
        </mxCell>
        <mxCell id="b48JXR69DHQrIMgQN_rI-37" value="" style="shape=curlyBracket;whiteSpace=wrap;html=1;rounded=1;flipH=1;labelPosition=right;verticalLabelPosition=middle;align=left;verticalAlign=middle;fontColor=#000000;fontFamily=Times New Roman;strokeWidth=2;" parent="1" vertex="1">
          <mxGeometry x="-111" y="92" width="20" height="214" as="geometry" />
        </mxCell>
        <mxCell id="b48JXR69DHQrIMgQN_rI-38" value="每经过L轮密钥纰漏重复一次" style="text;html=1;strokeColor=none;fillColor=none;align=center;verticalAlign=middle;whiteSpace=wrap;rounded=0;fontColor=#000000;fontFamily=Times New Roman;fontSize=14;fontStyle=1" parent="1" vertex="1">
          <mxGeometry x="-78" y="170" width="61" height="67" as="geometry" />
        </mxCell>
        <mxCell id="b48JXR69DHQrIMgQN_rI-39" value="" style="shape=curlyBracket;whiteSpace=wrap;html=1;rounded=1;flipH=1;labelPosition=right;verticalLabelPosition=middle;align=left;verticalAlign=middle;fontColor=#000000;fontFamily=Times New Roman;strokeWidth=2;" parent="1" vertex="1">
          <mxGeometry x="-111" y="336" width="20" height="249" as="geometry" />
        </mxCell>
        <mxCell id="b48JXR69DHQrIMgQN_rI-40" value="每轮d条消息生成哈希链并签名重复一次" style="text;html=1;strokeColor=none;fillColor=none;align=center;verticalAlign=middle;whiteSpace=wrap;rounded=0;fontColor=#000000;fontFamily=Times New Roman;fontSize=14;fontStyle=1" parent="1" vertex="1">
          <mxGeometry x="-78" y="427" width="64" height="67" as="geometry" />
        </mxCell>
        <mxCell id="b48JXR69DHQrIMgQN_rI-41" value="图例" style="swimlane;fontStyle=1;childLayout=stackLayout;horizontal=1;startSize=30;horizontalStack=0;resizeParent=1;resizeParentMax=0;resizeLast=0;collapsible=1;marginBottom=0;whiteSpace=wrap;html=1;fontFamily=Times New Roman;fontSize=16;fillColor=#f5f5f5;strokeColor=#666666;fontColor=#333333;" parent="1" vertex="1">
          <mxGeometry x="40" y="516" width="200" height="150" as="geometry" />
        </mxCell>
        <mxCell id="b48JXR69DHQrIMgQN_rI-42" value="S₀, S₁, ... - 哈希链节点" style="text;strokeColor=none;fillColor=none;align=left;verticalAlign=middle;spacingLeft=4;spacingRight=4;overflow=hidden;points=[[0,0.5],[1,0.5]];portConstraint=eastwest;rotatable=0;whiteSpace=wrap;html=1;fontFamily=Times New Roman;fontSize=14;" parent="b48JXR69DHQrIMgQN_rI-41" vertex="1">
          <mxGeometry y="30" width="200" height="30" as="geometry" />
        </mxCell>
        <mxCell id="b48JXR69DHQrIMgQN_rI-43" value="M₀, M₁, ... - 消息序列" style="text;strokeColor=none;fillColor=none;align=left;verticalAlign=middle;spacingLeft=4;spacingRight=4;overflow=hidden;points=[[0,0.5],[1,0.5]];portConstraint=eastwest;rotatable=0;whiteSpace=wrap;html=1;fontFamily=Times New Roman;fontSize=14;" parent="b48JXR69DHQrIMgQN_rI-41" vertex="1">
          <mxGeometry y="60" width="200" height="30" as="geometry" />
        </mxCell>
        <mxCell id="b48JXR69DHQrIMgQN_rI-44" value="T - 安全时延上限" style="text;strokeColor=none;fillColor=none;align=left;verticalAlign=middle;spacingLeft=4;spacingRight=4;overflow=hidden;points=[[0,0.5],[1,0.5]];portConstraint=eastwest;rotatable=0;whiteSpace=wrap;html=1;fontFamily=Times New Roman;fontSize=14;" parent="b48JXR69DHQrIMgQN_rI-41" vertex="1">
          <mxGeometry y="90" width="200" height="30" as="geometry" />
        </mxCell>
        <mxCell id="b48JXR69DHQrIMgQN_rI-45" value="L - 密钥纰漏周期" style="text;strokeColor=none;fillColor=none;align=left;verticalAlign=middle;spacingLeft=4;spacingRight=4;overflow=hidden;points=[[0,0.5],[1,0.5]];portConstraint=eastwest;rotatable=0;whiteSpace=wrap;html=1;fontFamily=Times New Roman;fontSize=14;" parent="b48JXR69DHQrIMgQN_rI-41" vertex="1">
          <mxGeometry y="120" width="200" height="30" as="geometry" />
        </mxCell>
      </root>
    </mxGraphModel>
  </diagram>
</mxfile>
